<?xml version="1.0" encoding="UTF-8" standalone="no"?>
<svg
   viewBox="409.289 277.787 163.27921 114.30076"
   width="163.27921"
   height="114.30076"
   version="1.1"
   id="svg27"
   sodipodi:docname="YouTube_Logo_2017.svg"
   inkscape:version="1.2.2 (b0a8486541, 2022-12-01)"
   xmlns:inkscape="http://www.inkscape.org/namespaces/inkscape"
   xmlns:sodipodi="http://sodipodi.sourceforge.net/DTD/sodipodi-0.dtd"
   xmlns="http://www.w3.org/2000/svg"
   xmlns:svg="http://www.w3.org/2000/svg">
  <defs
     id="defs31">
    <rect
       x="26.458865"
       y="16.17306"
       width="188.16238"
       height="72.212038"
       id="rect668" />
  </defs>
  <sodipodi:namedview
     id="namedview29"
     pagecolor="#ffffff"
     bordercolor="#000000"
     borderopacity="0.25"
     inkscape:showpageshadow="2"
     inkscape:pageopacity="0.0"
     inkscape:pagecheckerboard="0"
     inkscape:deskcolor="#d1d1d1"
     showgrid="false"
     inkscape:zoom="4.9453124"
     inkscape:cx="100.49921"
     inkscape:cy="59.854662"
     inkscape:window-width="1920"
     inkscape:window-height="1012"
     inkscape:window-x="0"
     inkscape:window-y="1124"
     inkscape:window-maximized="1"
     inkscape:current-layer="g6"
     showguides="false" />
  <g
     viewBox="0 0 90 20"
     preserveAspectRatio="xMidYMid meet"
     class="style-scope yt-icon"
     transform="matrix(5.715038,0,0,5.715038,409.289,277.787)"
     id="g25">
    <g
       class="style-scope yt-icon"
       id="g6">
      <path
         d="M 27.9727,3.12324 C 27.6435,1.89323 26.6768,0.926623 25.4468,0.597366 23.2197,2.24288e-7 14.285,0 14.285,0 14.285,0 5.35042,2.24288e-7 3.12323,0.597366 1.89323,0.926623 0.926623,1.89323 0.597366,3.12324 2.24288e-7,5.35042 0,10 0,10 c 0,0 2.24288e-7,4.6496 0.597366,6.8768 0.329257,1.23 1.295864,2.1966 2.525864,2.5258 C 5.35042,20 14.285,20 14.285,20 c 0,0 8.9347,0 11.1618,-0.5974 1.23,-0.3292 2.1967,-1.2958 2.5259,-2.5258 C 28.5701,14.6496 28.5701,10 28.5701,10 c 0,0 -0.0024,-4.64958 -0.5974,-6.87676 z"
         class="style-scope yt-icon"
         fill="#ff0000"
         id="path2" />
      <g
         aria-label="TXT"
         transform="matrix(0.21102868,0,0,0.20894849,-0.10908582,0.54846149)"
         id="text666"
         style="font-size:53.3333px;letter-spacing:-6.24959px;white-space:pre;shape-inside:url(#rect668);display:inline;fill:#ffffff;stroke-width:4.167">
        <path
           d="m 40.058976,64.700476 v -34.55998 h -10.66666 v -4.37333 h 26.133318 l 1.871804,4.373574 -12.538465,-2.44e-4 v 34.55998 z"
           style="font-family:'JetBrains Mono';-inkscape-font-specification:'JetBrains Mono'"
           id="path915"
           sodipodi:nodetypes="ccccccccc" />
        <path
           d="M 54.342727,64.700476 65.54272,44.967154 54.929393,25.767166 h 5.546663 l 6.026663,11.519993 q 0.48,0.906666 0.96,1.973332 0.533333,1.013333 0.853333,1.599999 0.266666,-0.586666 0.746666,-1.599999 0.533333,-1.066666 1.013332,-1.973332 l 6.13333,-11.519993 h 5.279997 L 70.87605,44.647154 82.076043,64.700476 h -5.49333 L 69.916051,52.32715 q -0.48,-0.906666 -1.013333,-1.919999 -0.48,-1.066666 -0.746666,-1.706666 -0.266667,0.64 -0.8,1.653333 -0.48,1.013332 -0.959999,1.919998 l -6.719996,12.42666 z"
           style="font-family:'JetBrains Mono';-inkscape-font-specification:'JetBrains Mono'"
           id="path917" />
        <path
           d="m 91.559796,64.700476 v -34.55998 h -12.52123 l 1.85457,-4.37333 h 26.133314 v 4.37333 H 96.359794 v 34.55998 z"
           style="font-family:'JetBrains Mono';-inkscape-font-specification:'JetBrains Mono'"
           id="path919"
           sodipodi:nodetypes="ccccccccc" />
      </g>
    </g>
    <g
       class="style-scope yt-icon"
       id="g23" />
  </g>
</svg>
